<svg viewBox="0 0 64 64" version="1.1" xmlns="http://www.w3.org/2000/svg"><title>Tag icon</title><g><path data-color="1" d="M52.0999024,26.6840221 C54.9791734,26.6840221 57.3065408,29.0165962 57.3065408,31.8906606 L57.3065408,58.7933615 C57.3065408,61.667426 54.9791734,64 52.0999024,64 L12.2066385,64 C9.32736739,64 7,61.667426 7,58.7933615 L7,31.8906606 C7,29.0165962 9.32736739,26.6840221 12.2066385,26.6840221 L12.4773837,26.6840221 L12.4773837,20.0924178 C12.4773837,9.01269118 21.3078425,0 32.1532704,0 C42.9986983,0 51.8239505,9.01269118 51.8239505,20.0924178 L51.8239505,26.6840221 L52.0999024,26.6840221 Z M22.8906606,20.0924178 L22.8906606,26.6840221 L41.4106736,26.6840221 L41.4106736,20.0924178 C41.4106736,14.7504068 37.2557761,10.4132769 32.1532704,10.4132769 C27.0455581,10.4132769 22.8906606,14.7504068 22.8906606,20.0924178 Z M17.4132769,53.5867231 L46.8932639,53.5867231 L46.8932639,37.0972991 L17.4132769,37.0972991 L17.4132769,53.5867231 Z"></path></g></svg>