<?xml version="1.0" encoding="UTF-8"?><!DOCTYPE svg PUBLIC "-//W3C//DTD SVG 1.1//EN" "http://www.w3.org/Graphics/SVG/1.1/DTD/svg11.dtd"><svg xmlns="http://www.w3.org/2000/svg"><symbol id="icon-facebook" viewBox="0 0 10 19">
    <title>
        facebook
    </title>
    <path d="M9.766.157v2.946H8.014c-.64 0-1.071.134-1.295.402-.223.268-.335.67-.335 1.205v2.11h3.27l-.435 3.303H6.384v8.471H2.97v-8.47H.123V6.82H2.97V4.387c0-1.384.387-2.457 1.161-3.22C4.904.404 5.934.023 7.222.023c1.093 0 1.941.045 2.544.134z" fill-rule="evenodd"/>
</symbol><symbol id="icon-lock" viewBox="0 0 64 64">
    <title>
        Tag icon
    </title>
    <path data-color="1" d="M52.1 26.684a5.205 5.205 0 0 1 5.207 5.207v26.902A5.205 5.205 0 0 1 52.1 64H12.207A5.205 5.205 0 0 1 7 58.793V31.891a5.205 5.205 0 0 1 5.207-5.207h.27v-6.592C12.477 9.012 21.307 0 32.153 0 43 0 51.824 9.013 51.824 20.092v6.592h.276zm-29.21-6.592v6.592h18.52v-6.592c0-5.342-4.154-9.679-9.257-9.679-5.107 0-9.262 4.337-9.262 9.68zm-5.477 33.495h29.48v-16.49h-29.48v16.49z"/>
</symbol></svg>